# xmcd
#
# Track frame offsets: 
#        150
#        19394
#        34472
#        47585
#        77565
#        94983
#        115794
#        141887
#        157171
#        174689
#        195972
#        211922
#        255781
#        287262
#        304161
#
# Disc length: 4260 seconds
#
# Revision: 0
# Processed by: cddbd v1.5.2PL0 Copyright (c) Steve Scherf et al.
# Submitted via: ExactAudioCopy v1.3
#
DISCID=c710a20f
DTITLE=Sven Zetterberg and The Chicago Express - Steppin' Out - Alive!
DYEAR=1996
DGENRE=Electric Blues
TTITLE0=Tip On In
TTITLE1=Party Girl
TTITLE2=Warm And Tender Love
TTITLE3=All For Business
TTITLE4=Don't Slow Me Down
TTITLE5=You Don't Know What Love Is
TTITLE6=Riding High
TTITLE7=Rambler Blues
TTITLE8=Act Like You Love Me
TTITLE9=You Took Off With My Life
TTITLE10=The Groove
TTITLE11=Open House At My House
TTITLE12=That's What Love Will Make You Do
TTITLE13=Down In The Bottom
TTITLE14=You Can't Sit Down
EXTD=
EXTT0=
EXTT1=
EXTT2=
EXTT3=
EXTT4=
EXTT5=
EXTT6=
EXTT7=
EXTT8=
EXTT9=
EXTT10=
EXTT11=
EXTT12=
EXTT13=
EXTT14=
PLAYORDER=
